<svg xmlns="http://www.w3.org/2000/svg" viewBox="0 0 300 450" width="300" height="450" font-family="Arial, Helvetica, sans-serif"><rect width="300" height="450" fill="#1B2A4A"/><text x="150.0" y="135.0" text-anchor="middle" dominant-baseline="middle" font-weight="bold" font-size="26.0" fill="#C9A227">BEACH READ</text><svg x="67.5" y="374.1" width="165.0" height="53.4" xmlns:xlink="http://www.w3.org/1999/xlink" viewBox="0.0 0.0 999.99998 323.62457" preserveAspectRatio="xMidYMid meet"><g fill="#C9A227">
  <g id="g913">
    <g id="g2628" fill="#C9A227">
      <path
         id="rect919"
         fill="#C9A227"
         d="M 0,0 H 95.647768 L 20.242909,323.38057 H 0 Z" />
      <path
         id="path922"
         fill="#C9A227"
         d="m 999.99999,0 h -95.64778 l 75.40486,323.38057 h 20.24292 z" />
      <g
         id="g954"
         fill="#C9A227"
         transform="scale(3.3710894)">
        <path
           fill="#C9A227"
           d="m 46.069927,79.295474 19.744255,-2.22919 -3.290709,12.207469 -41.823851,3.92762 1.273823,-9.765975 25.746416,-27.740334 c 0,0 3.15255,-2.997786 3.15255,-6.11745 0,-2.567688 -1.331638,-5.085365 -4.785121,-5.085365 -7.576669,0 -8.369272,8.613219 -8.369272,8.613219 L 22.51822,55.770124 c 0,0 -5.895569,-21.919237 19.966155,-25.295467 9.392961,-1.226244 22.19351,4.384771 22.743402,17.038787 0.277949,6.396115 -2.927369,10.28332 -2.927369,10.28332 z"
           id="path924" />
        <path
           id="path928"
           fill="#C9A227"
           d="m 110.16797,16.708984 c -2.1824,-0.05044 -4.47784,0.054 -6.88477,0.330078 -17.39825,1.995626 -34.226559,21.294241 -34.226559,39.857422 0,24.678941 22.892578,29.498047 22.892578,29.498047 l 23.568361,-2.476562 c 0,0 26.34765,-9.420029 26.34765,-38.582031 0,-13.229181 -10.60071,-28.139328 -31.69726,-28.626954 z M 107.03711,31.375 C 118.17387,31.38771 123.9027,40.054677 124,47.962891 124.16207,61.135118 112.25188,70.6021 101.70703,70.707031 89.985382,70.823672 84.414738,61.56065 84.443359,53.369141 84.480079,42.859214 94.800474,31.36104 107.03711,31.375 Z" />
      </g>
      <g
         id="g950"
         fill="#C9A227"
         transform="scale(3.3710894)">
        <path
           id="rect934"
           fill="#C9A227"
           d="m 156.62695,11.783203 -4.0332,0.689453 v 17.302735 l 4.0332,-0.636719 v -9.185547 l 0.0527,0.0039 3.46875,-0.929687 v -3.794922 l -3.52149,0.943359 z" />
        <path
           fill="#C9A227"
           d="m 167.91086,27.584819 -4.24093,0.638016 -0.11259,-24.9576931 4.31599,-0.6004859 0.11259,11.334171 c 0,0 1.57514,-1.088381 2.477,-1.088381 2.92199,0 4.09081,3.790567 4.09081,3.790567 l 0.18766,10.095669 -4.12834,0.487894 0.0751,-9.345061 c 0,0 -0.26993,-1.200972 -1.31357,-1.200972 -1.32646,0 -1.46368,1.426154 -1.46368,1.426154 z"
           id="path946" />
      </g>
      <path
         fill="#C9A227"
         d="m 960.52632,284.91903 -2.53037,-15.68826 -63.2591,-25.80971 -400.54937,28.18524 v 11.80897 l 397.21081,-26.48072 z"
         id="path956" />
      <path
         id="path958"
         fill="#C9A227"
         d="m 892.58808,147.16254 -398.40087,41.0654 v 11.81198 l 13.18807,6.61708 c 0,0 -5.90122,13.08178 -4.21386,19.52203 1.54015,5.87839 6.21781,10.24347 11.20624,13.08931 2.43282,1.38789 8.15275,0.54599 10.42274,1.00079 3.41201,0.68359 7.74771,3.61907 7.65736,7.09772 -0.10619,4.09372 -5.37261,7.30941 -9.4285,7.87466 -5.13134,0.71512 -14.20203,-6.32079 -14.20203,-6.32079 l -6.43274,10.75851 2.3308,2.21886 35.49521,-2.88386 c 0,0 6.35569,-3.23618 5.32656,-14.31396 -0.87129,-9.37904 -4.50738,-11.65731 -9.21123,-15.30817 -3.87214,-3.00533 -14.19542,-3.87807 -14.19542,-3.87807 0,0 -6.1131,-2.62223 -6.21545,-5.43852 -0.13788,-3.79302 4.76918,-7.61246 8.54622,-7.98658 3.76345,-0.37277 12.42432,4.54965 12.42432,4.54965 l 5.76773,-10.4293 -4.88545,-3.325 6.99238,-0.44114 5.21464,2.21886 -0.50698,8.1446 13.81358,-1.04688 -0.11192,46.14179 13.97818,-0.665 -0.21743,-47.14258 13.85966,-0.77693 -0.88228,-11.64738 10.20547,-1.10614 -0.88886,44.14679 c 0,0 1.28695,5.68281 2.65999,8.21045 1.20456,2.2175 4.7735,5.87965 4.7735,5.87965 l 36.27225,-3.44352 c 0,0 3.25869,-3.19426 4.21386,-5.21465 1.5652,-3.31072 2.21885,-10.75852 2.21885,-10.75852 l 0.40824,-44.37723 7.80222,-1.09955 5.43193,3.87807 v 56.24188 l 43.15258,-2.77193 c 0,0 8.98078,-8.62762 8.98078,-29.8394 0,-17.24487 -11.53543,-29.83942 -11.53543,-29.83942 l 24.84861,7.6508 v 50.47416 l 15.97316,-0.77693 -0.9942,-64.11654 6.76193,-0.32922 13.4251,5.76773 c 0,0 -8.4343,15.19566 -8.4343,28.39747 0,14.64453 11.53543,28.39748 11.53543,28.39748 l 46.03644,-3.54886 c 0,0 13.03843,-14.42306 11.98318,-32.61792 -1.00745,-17.37068 -15.7559,-31.16941 -15.7559,-31.16941 l 25.96133,8.54623 c 0,0 -3.43345,11.19851 -0.33576,16.63818 3.07025,5.39162 9.21926,9.45116 14.09011,11.31158 4.82558,1.84312 11.72886,-0.48453 15.4201,1.55386 2.45078,1.35339 5.10016,4.22176 4.65501,6.98579 -0.64921,4.03096 -5.64085,6.78549 -9.65238,7.54545 -7.01163,1.32831 -20.51625,-6.10352 -20.51625,-6.10352 l -7.32156,12.42431 3.87806,4.10852 43.92951,-3.77273 c 0,0 7.37483,-9.71172 6.20884,-20.52282 -1.73847,-16.11944 -17.19124,-17.0793 -17.19124,-17.07931 l -13.20122,-1.77772 c 0,0 -5.52784,-3.1276 -5.43194,-5.76772 0.15474,-4.26285 5.26591,-7.71971 9.42854,-8.65159 5.71197,-1.27872 16.76324,5.22124 16.76324,5.22124 l 9.72482,-13.1749 -14.9197,-9.32976 21.99767,-2.11351 44.79861,21.89891 -4.3192,-16.40114 z m -102.42974,42.94188 c 8.44677,0.32413 16.54706,7.34527 17.38218,19.32451 0.66704,9.56824 -8.50977,22.32267 -18.08009,22.95896 -10.34153,0.68757 -17.63104,-10.39842 -17.63899,-20.0751 -0.007,-9.24384 7.42233,-21.55339 16.64475,-22.18203 0.56412,-0.0385 1.12901,-0.0479 1.69215,-0.0263 z m -168.62691,4.18094 13.81358,4.43773 0.17765,35.7849 c 0,0 -2.25964,9.6791 -11.55518,10.25812 -7.92732,0.4938 -11.26551,-10.70584 -11.26551,-10.70584 l 0.56624,-39.26134 z m 55.9917,6.20228 c 0.69687,-0.0266 1.69451,-0.0403 2.89044,0 7.17553,0.24171 21.53021,2.53585 21.53021,16.99372 0,23.52426 -25.51362,23.67005 -25.51362,23.67005 v -40.59793 c 0,0 0.3961,-0.0393 1.09297,-0.0658 z" />
      <path
         id="path962"
         fill="#C9A227"
         d="M 892.84489,58.849212 494.18721,110.04105 v 11.17332 l 12.08195,7.23599 c 0,0 -9.09058,11.67256 -8.87544,24.18361 0.3388,19.7028 11.09429,27.29134 11.09429,27.29134 l 33.94134,-2.88386 c 2.06517,-0.91816 3.75516,-2.68025 5.54386,-4.22044 l -7.76271,-9.75773 c 0,0 -5.95373,6.43273 -13.97819,6.43273 -8.83622,0 -14.10848,-8.43749 -14.64317,-15.53204 -0.61512,-8.1617 4.69734,-18.90081 13.97819,-20.18703 6.64808,-0.92134 14.20203,4.21386 14.20203,4.21386 l 7.09773,-11.53544 -6.98581,-5.03688 13.01689,3.4501 v 51.06673 l 44.31796,-5.25416 v -7.21624 l -29.9645,3.75956 v -11.13381 l 24.86836,-2.90362 v -15.99951 l -25.57285,3.05505 v -12.15435 l 30.35295,-2.1201 -1.64604,-14.27446 9.25735,4.00317 -0.0789,54.04278 14.82753,-1.49461 v -30.27396 l 25.09881,28.08144 18.19862,-1.88307 -0.1581,-61.02199 7.29524,3.68055 0.4675,10.59391 12.94445,-2.04109 0.54642,46.43149 16.07851,-1.25099 -0.62551,-47.3006 14.74852,-1.72505 0.30946,-14.511483 4.54966,3.529113 0.586,41.24317 c 0,0 1.5719,7.35786 3.49619,10.50832 2.03145,3.32586 5.54386,5.65579 5.54386,5.65579 l 36.71986,-3.44352 c 0,0 3.56361,-4.30947 4.54965,-6.87386 1.15436,-3.00236 1.43534,-9.54044 1.43534,-9.54044 l -0.10517,-44.370651 9.86964,7.321581 0.44771,51.69223 15.19626,-1.44193 v -16.19703 l 9.20463,14.97896 22.62975,-1.77772 -13.64236,-18.30396 c 0,0 11.53546,-4.42986 11.53543,-21.07589 0,-10.838181 -6.65655,-19.41011 -6.65655,-19.410103 l 9.31658,1.771137 23.5186,33.170996 v 19.63396 l 15.41353,-1.00079 -0.21743,-21.96476 26.17863,-47.583715 -1.51436,-1.119306 21.51703,12.28604 -3.31183,-16.15094 z m -49.27585,22.754854 24.96713,9.751139 -8.84254,16.526235 z m -107.51931,12.207031 18.82409,8.941293 0.31587,36.8647 c 0,0 -0.87412,7.43068 -9.57335,7.99975 -7.41876,0.48531 -9.88282,-6.2747 -9.88282,-6.2747 z m 64.53135,8.855693 c 4.28971,0.0283 10.01449,1.06256 10.01449,6.35372 0,11.03517 -14.64317,10.11326 -14.64317,10.11326 V 102.996 c 0,0 2.05482,-0.34612 4.62868,-0.32922 z m -182.9738,5.89282 25.41484,10.19228 -0.0789,17.4151 z" />
    </g>
  </g>
</g></svg></svg>