<svg xmlns="http://www.w3.org/2000/svg" viewBox="0 0 300 450" width="300" height="450" font-family="Arial, Helvetica, sans-serif"><rect width="300" height="450" fill="#1A1209"/><text x="150.0" y="124.0" text-anchor="middle" dominant-baseline="middle" font-weight="bold" font-size="20.9" fill="#FFFFFF">IT'S A WONDERFUL LIFE</text><text x="150.0" y="146.0" text-anchor="middle" dominant-baseline="middle" font-weight="bold" font-size="20.9" fill="#FFFFFF">80TH ANNIVERSARY</text><svg x="67.4" y="377.4" width="165.1" height="50.1" xmlns:xlink="http://www.w3.org/1999/xlink" viewBox="0.0 0.0 4377.6 1328.2" preserveAspectRatio="xMidYMid meet"><g fill="#FFFFFF"><defs><style> .st0 { fill: #ffffff; } .st1 { fill: none; stroke: #ffffff; stroke-miterlimit: 5.8; stroke-width: 140.6px; } </style></defs><g id="Layer_11" data-name="Layer_1"><g><g><path class="st0" d="M964.5,1149.7v27.1h-92v-128h91.2v27.1h-59.5v22.5h57.8v27.1h-57.8v24.3h60.2,0Z"></path><path class="st0" d="M1155,1048.8h31.7v128h-28l-66.4-76.1v76.1h-31.7v-128h28l66.4,76.2v-76.2h0Z"></path><path class="st0" d="M1280.5,1048.8h105.2v27.1h-36.7v100.9h-31.7v-100.9h-36.7v-27.1h0Z"></path><path class="st0" d="M1571.5,1149.7v27.1h-92v-128h91.2v27.1h-59.5v22.5h57.8v27.1h-57.8v24.3h60.2,0Z"></path><path class="st0" d="M1712.3,1142.9h-13.1v33.8h-31.7v-128h63.6c27.6,0,48.1,20.5,48.1,47.2s-11.4,36-28.3,43.1l35.4,37.7h-42.7l-31.3-33.8h0ZM1726.7,1116.2c11.8,0,20.9-7.9,20.9-20.3s-9.1-20.5-20.9-20.5h-27.4v40.8h27.4Z"></path><path class="st0" d="M1867.5,1048.8h105.2v27.1h-36.7v100.9h-31.7v-100.9h-36.7v-27.1h0Z"></path><path class="st0" d="M2136.8,1158.7h-54.3l-6.5,18.1h-34.3l56.1-128h23.9l56.1,128h-34.3l-6.7-18.1h0ZM2091.9,1133.2h35.6l-17.7-48.3-17.9,48.3Z"></path><path class="st0" d="M2270.5,1176.8v-128h31.7v128h-31.7Z"></path><path class="st0" d="M2498.3,1048.8h31.7v128h-28l-66.4-76.1v76.1h-31.7v-128h28l66.4,76.2v-76.2h0Z"></path><path class="st0" d="M2703.6,1131.4l51.7-82.6h21.3v128h-30.6v-62l-42.3,63.8-42.3-63.8v62h-30.6v-128h21.3l51.7,82.6h0Z"></path><path class="st0" d="M2969.2,1149.7v27.1h-92v-128h91.2v27.1h-59.5v22.5h57.8v27.1h-57.8v24.3h60.2,0Z"></path><path class="st0" d="M3159.7,1048.8h31.7v128h-28l-66.4-76.1v76.1h-31.7v-128h28l66.4,76.2v-76.2h0Z"></path><path class="st0" d="M3285.2,1048.8h105.2v27.1h-36.7v100.9h-31.7v-100.9h-36.7v-27.1Z"></path></g><g><path class="st0" d="M166.6,934V355.8c0-57.7,46.9-104.5,111.7-104.5h593l-56.1,128.1h-468c-13.4,0-24.2,10.8-24.2,24.2l-.3,132.9h423.9l-57.2,128h-366.3l-.4,252.2-156,17.3h0Z"></path><path class="st0" d="M1187.1,771.2l-295.1,1h0l-43.9,105.9h0l-150.4,8.8s1.8-4.6,1.8-4.6l255.1-580.9c14.1-32.7,49.4-49.7,85.1-49.7h0c36.2,0,70.8,16.4,85.1,49.7l246.9,555.9h0l-145.7,4.2h0l-38.9-90.3h0ZM949.2,643.8h180.9l-81.4-182.5c-3.2-8.8-14.9-8.8-18.1,0l-81.4,182.5h0Z"></path><path class="st0" d="M1275.6,251.4h517.6v127.5h-180.8v472.5l-156,3.4v-475.9h-180.8v-127.5h0Z"></path><path class="st0" d="M2301,251.4h156v597.3l-156-1.4v-182.5h-267.1v182l-156,.9V251.4h156v285.6h267.1V251.4Z"></path><path class="st1" d="M3054.8,792l-338.5-9.6c-57.4,0-104.5-53.5-104.5-110.9v-227.8c0-67.2,55-122.2,122.2-122.2h309.4c63.8,0,115.6,51.8,115.6,115.6l-.9,244c0,57.4-45.9,110.9-103.3,110.9h0Z"></path><path class="st0" d="M3702.2,646.2l256.5-361c14.1-19.9,35.5-33.6,60-33.6h0c39,0,70.9,31.9,70.9,70.9v611.5l-156.1-17.3v-365.9l-179.5,252.6c-23.6,36.2-76.2,36.3-99.8,0l-186.7-262.7v340.6s-156.1-8.3-156.1-8.3V327.6c0-41.8,34.2-75.9,75.9-75.9h0c21.3,0,43.6,10.7,54.8,28.8l260.1,365.7h0Z"></path></g></g></g><g id="Layer_2"><path class="st0" d="M4137.4,308.2v-44.2h-16.4v-12.2h46v12.2h-16.3v44.2h-13.3ZM4203.1,295.9l-16.1-23.5v35.7h-13.3v-56.4h14.6l14.8,21.9,14.8-21.9h14.6v56.4h-13.3v-35.9l-16.1,23.6Z"></path></g></g></svg></svg>