<svg xmlns="http://www.w3.org/2000/svg" viewBox="0 0 300 450" width="300" height="450" font-family="Arial, Helvetica, sans-serif"><rect width="300" height="450" fill="#0D0D0D"/><text x="150.0" y="121.3" text-anchor="middle" dominant-baseline="middle" font-weight="bold" font-size="26.0" fill="#FFFFFF">JASON STATHAM</text><text x="150.0" y="148.7" text-anchor="middle" dominant-baseline="middle" font-weight="bold" font-size="26.0" fill="#FFFFFF">STOLE MY BIKE</text><svg x="57.0" y="405.7" width="186.0" height="21.8" xmlns:xlink="http://www.w3.org/1999/xlink" viewBox="0.0 0.0 1000.0 117.04759" preserveAspectRatio="xMidYMid meet"><g fill="#FFFFFF">
  <path id="path2452" style="fill:#FFFFFF;stroke-width:24.0799" d="M 0 0 L 0 22.273438 L 10.740234 22.273438 C 27.475699 22.273437 25.283203 18.060547 25.283203 18.060547 C 25.283203 18.060547 23.717701 12.785969 28.003906 11.4375 C 35.179688 9.2221571 36.408203 16.302734 36.408203 16.302734 L 48.833984 16.302734 C 51.049326 16.302734 53.529021 17.1697 54.564453 18.349609 C 55.599885 19.52952 57.357303 23.935861 58.826172 24.802734 C 60.295039 25.693687 61.619336 26.416016 63.955078 26.416016 C 65.207228 26.416016 70.120517 26.41553 72.119141 26.873047 C 72.119141 26.873047 73.202667 26.945496 73.732422 27.451172 C 74.238098 27.956848 73.660615 29.81073 73.130859 30.316406 C 73.130859 30.316406 71.975094 32.820142 71.517578 34.144531 C 71.084142 35.444841 71.059721 35.950306 70.578125 37.154297 C 69.95205 38.599084 69.615129 39.635028 69.326172 40.357422 C 69.037214 41.103895 68.146733 41.923907 67.039062 42.140625 C 65.955471 42.357344 64.581285 42.115982 64.316406 42.380859 C 63.85889 42.790215 63.329147 44.041119 62.558594 44.330078 C 60.51181 45.100631 57.261182 45.58401 53.986328 45.65625 C 47.50886 45.800728 35.518156 45.438234 29.931641 51.048828 C 26.560468 54.395922 25.380859 58.346384 25.380859 63.8125 C 25.380859 72.770188 27.812367 81.943359 41.802734 81.943359 C 53.336962 81.943359 53.529297 93.068634 53.529297 95.621094 C 53.529297 98.149473 53.626639 98.148438 49.171875 98.148438 L 40.140625 98.148438 C 34.57819 98.148438 31.352703 97.739658 29.113281 96.150391 C 26.320023 94.199927 24.032404 89.503932 12.859375 89.576172 C 12.281459 89.576172 13.364107 88.564964 13.845703 88.179688 C 14.351378 87.794411 13.75 87.818359 13.75 87.818359 L 0 87.818359 L 0 116.88281 L 42.285156 116.88281 C 56.106964 116.88281 68.941236 114.54839 77.441406 109.73242 C 86.736212 104.55527 92.900391 95.910669 92.900391 84.761719 C 92.900391 68.941286 80.257317 61.115039 60.945312 58.779297 L 60.945312 58.056641 C 75.007919 55.311542 91.431641 47.701528 91.431641 28.943359 C 91.431641 19.359597 87.120426 11.342047 79.896484 6.6464844 C 72.455824 1.9509221 62.704175 0 47.654297 0 L 0 0 z M 358.64062 0.28125 C 324.11565 0.28125 301.47852 24.384713 301.47852 58.583984 C 301.47852 92.94611 324.11565 117.04687 358.64062 117.04688 C 387.46573 117.04688 407.98567 100.43745 413.68555 74.380859 L 379.32422 74.380859 C 375.25287 83.012105 367.59786 87.734375 358.15234 87.734375 C 343.49551 87.734375 333.88672 76.335036 333.88672 58.583984 C 333.88672 40.995787 343.49551 29.595703 358.15234 29.595703 C 367.59786 29.595703 375.25287 34.317973 379.32422 42.949219 L 413.68555 42.949219 C 407.98567 16.892631 387.46573 0.28125 358.64062 0.28125 z M 105.73438 1.421875 L 105.73438 116.23242 L 173.31836 116.23242 L 173.31836 91.804688 L 137.6543 91.804688 L 137.6543 1.421875 L 105.73438 1.421875 z M 226.23242 1.421875 L 184.37891 116.23242 L 217.92773 116.23242 L 224.11523 97.505859 L 264.82812 97.505859 L 271.01758 116.23242 L 304.72852 116.23242 L 263.03711 1.421875 L 226.23242 1.421875 z M 425.61133 1.421875 L 425.61133 116.23242 L 457.5293 116.23242 L 457.5293 65.912109 L 493.52148 116.23242 L 532.11719 116.23242 L 487.82031 57.117188 L 530 1.421875 L 493.19531 1.421875 L 457.5293 50.929688 L 457.5293 1.421875 L 425.61133 1.421875 z M 578.20508 1.421875 L 578.20508 116.23242 L 635.04102 116.23242 C 659.63192 116.23242 673.47461 104.34443 673.47461 84.964844 C 673.47461 71.936549 665.16799 60.373517 651.48828 57.279297 C 662.72519 54.185078 670.86914 45.067173 670.86914 31.224609 C 670.86914 12.17073 656.53808 1.421875 633.25 1.421875 L 578.20508 1.421875 z M 687.47852 1.421875 L 687.47852 116.23242 L 760.92578 116.23242 L 760.92578 90.666016 L 719.39844 90.666016 L 719.39844 69.982422 L 756.04102 69.982422 L 756.04102 45.716797 L 719.39844 45.716797 L 719.39844 26.990234 L 760.92578 26.990234 L 760.92578 1.421875 L 687.47852 1.421875 z M 814.02148 1.421875 L 772.16797 116.23242 L 805.71484 116.23242 L 811.9043 97.505859 L 852.61719 97.505859 L 858.80664 116.23242 L 892.51758 116.23242 L 850.82617 1.421875 L 814.02148 1.421875 z M 906.19531 1.421875 L 906.19531 116.23242 L 938.11523 116.23242 L 938.11523 73.890625 L 941.53516 73.890625 L 964.33594 116.23242 L 1000 116.23242 L 974.10547 71.449219 C 991.2051 66.237901 999.34766 53.209102 999.34766 38.226562 C 999.34766 17.707 985.01697 1.421875 956.51758 1.421875 L 906.19531 1.421875 z M 610.12305 26.826172 L 626.24609 26.826172 C 634.06307 26.826172 638.29688 30.246083 638.29688 37.085938 C 638.29688 43.762939 634.06307 47.019531 626.24609 47.019531 L 610.12305 47.019531 L 610.12305 26.826172 z M 938.11523 28.128906 L 953.91211 28.128906 C 962.54336 28.128906 966.94141 32.852017 966.94141 40.017578 C 966.94141 47.834555 962.54336 52.068359 953.91211 52.068359 L 938.11523 52.068359 L 938.11523 28.128906 z M 244.47266 35.947266 L 256.84961 73.076172 L 232.25781 73.076172 L 244.47266 35.947266 z M 832.25977 35.947266 L 844.63672 73.076172 L 820.04688 73.076172 L 832.25977 35.947266 z M 610.12305 69.65625 L 628.52539 69.65625 C 636.34237 69.65625 640.74023 73.403541 640.74023 80.40625 C 640.74023 87.246104 636.66929 90.501953 628.68945 90.501953 L 610.12305 90.501953 L 610.12305 69.65625 z "/>
</g></svg></svg>