<svg xmlns="http://www.w3.org/2000/svg" viewBox="0 0 300 450" width="300" height="450" font-family="Arial, Helvetica, sans-serif"><rect width="300" height="450" fill="#FF5E00"/><text x="150.0" y="124.6" text-anchor="middle" dominant-baseline="middle" font-weight="bold" font-size="26.0" fill="#FFFFFF">MOB PSYCHO 100</text><text x="150.0" y="145.4" text-anchor="middle" dominant-baseline="middle" font-size="22.0" fill="#FFFFFF" opacity="0.9">(10th Anniversary)</text><svg x="67.6" y="396.8" width="164.8" height="30.7" xmlns:xlink="http://www.w3.org/1999/xlink" viewBox="0.0 0.0 543.468 101.224" preserveAspectRatio="xMidYMid meet"><g fill="#FFFFFF"><g fill="#FFFFFF"><path d="M157.521 36.489v8.812s-5.25-2.188-10.938-2.188c-7.366 0-12.312 2.714-12.312 13.688 0 9.354 3.452 13.835 12.125 13.835 5.812 0 11.125-2.397 11.125-2.397v8.875s-6.5 2.438-12.562 2.438c-14.326 0-21.199-8.828-21.199-22.812 0-15.334 8.492-22.665 21.074-22.665 6.312-.001 12.687 2.414 12.687 2.414zm169.438 0v8.812s-5.25-2.188-10.938-2.188c-7.366 0-12.312 2.714-12.312 13.688 0 9.354 3.451 13.835 12.125 13.835 5.812 0 11.125-2.397 11.125-2.397v8.875s-6.5 2.438-12.562 2.438c-14.326 0-21.199-8.828-21.199-22.812 0-15.334 8.492-22.665 21.074-22.665 6.312-.001 12.687 2.414 12.687 2.414z"/><use xlink:href="#B"/><use xlink:href="#B" x="263.062"/><path d="M199.396 34.676v26.219c0 11.507 4.703 18.594 19 18.594 15.52 0 19.625-8.311 19.625-18.594V34.676h-10.25v26.031c0 6.442-2.868 9.156-9.188 9.156-6.06 0-9.125-3.032-9.125-9.156V34.676h-10.062zm48.625 43.938V42.551c0-5.731 4.701-8.5 19.25-8.5 16.252 0 18.994 7.981 18.994 17.562v27h-10.307V49.551c0-4.564-2.781-6.125-9.688-6.125-5.803 0-8 .963-8 2.375v32.812h-10.249zm88.688-60.625v60.625h10.531V44.557s3.271-1.284 7.281-1.284c7.071 0 10.647 2.302 10.647 7.278v28.062h10.353V52.051c0-12.109-8.271-17.978-19.312-17.978-5.125 0-8.969 1.54-8.969 1.54V17.989h-10.531zm87.097 16.687h-11.159l-9.812 30.999-10-30.999h-11.062l15.835 41.744-8.091 19.568h10.943c8.374-20.749 16.186-42.249 23.346-61.312zm55.903-.625c12.908 0 20.915 7.783 20.915 22.812 0 13.458-6.544 22.625-20.853 22.625-13.672 0-20.938-7.996-20.938-22.625.001-15.374 8.016-22.812 20.876-22.812zm-10.422 22.778c0 9.531 2.691 14.164 10.463 14.164 8.091 0 10.42-4.878 10.42-14.164 0-10.101-3.151-14.139-10.451-14.139-7.472 0-10.432 4.28-10.432 14.139zm40.601-38.778h10.509v60.562h-10.509zm23.071 0h10.509v60.562h-10.509z"/></g><path d="M51.292 0c25.876 0 51.5 21.635 50.25 52.968-1.917-23.833-22.097-40.807-44.583-40.807-24.463 0-44.75 19.81-44.75 44.807 0 23.002 18.75 43 42.5 44.188C21.709 102.718 0 77.011 0 50.635 0 23.324 22.264 0 51.292 0zm24.917 27.718c-6.489 1.738-10.75 9.017-10.75 15.417 0 8.751 7.264 16.167 16.333 16.167 4.641 0 9.25-1.916 12.917-6.416 3.5 18.5-9.816 41.833-35 41.833-21.695 0-35.833-17.856-35.833-35.75 0-19.364 16.45-35.25 35.917-35.25 9.499-.001 16.416 3.999 16.416 3.999z" fill="#FFFFFF"/><defs><path id="B" d="M168.084 78.614v-39c0-3.381 6.438-5.875 22.875-5.562v9.062c-4.043 0-12.312.031-12.312 2.375v33.125h-10.563z"/></defs></g></svg></svg>