<svg xmlns="http://www.w3.org/2000/svg" viewBox="0 0 300 450" width="300" height="450" font-family="Arial, Helvetica, sans-serif"><rect width="300" height="450" fill="#F5E050"/><text x="150.0" y="107.7" text-anchor="middle" dominant-baseline="middle" font-weight="bold" font-size="26.0" fill="#000000">UNTITLED</text><text x="150.0" y="135.0" text-anchor="middle" dominant-baseline="middle" font-weight="bold" font-size="26.0" fill="#000000">ILLUMINATION</text><text x="150.0" y="162.3" text-anchor="middle" dominant-baseline="middle" font-weight="bold" font-size="26.0" fill="#000000">EVENT FILM</text><svg x="67.5" y="402.4" width="165.1" height="25.1" xmlns:xlink="http://www.w3.org/1999/xlink" viewBox="0.0 0.0 217.0 33.0" preserveAspectRatio="xMidYMid meet"><g fill="#000000"> <path fill="#000000" fill-rule="evenodd" clip-rule="evenodd" d="M194.604 17.1838C194.604 22.829 193.872 26.8385 192.409 29.2125C190.946 31.5865 188.494 32.7735 185.053 32.7735C181.435 32.7735 178.887 31.4968 177.408 28.9434C175.945 26.4452 175.213 22.0077 175.213 15.6311C175.213 9.94455 175.937 5.92118 177.384 3.56099C178.847 1.187 181.323 0 184.812 0C187.931 0 190.246 0.917854 191.758 2.75356C192.755 3.98196 193.478 5.72795 193.928 7.99152C194.378 10.0895 194.604 13.1536 194.604 17.1838ZM189.346 17.6393C189.346 12.1046 189.057 8.4332 188.478 6.6251C187.899 4.8032 186.717 3.89224 184.932 3.89224C183.148 3.89224 181.958 4.72728 181.363 6.39736C180.784 8.08124 180.495 11.4628 180.495 16.542C180.495 21.221 180.8 24.4645 181.411 26.2726C182.038 27.9841 183.212 28.8399 184.932 28.8399C186.621 28.8399 187.778 28.0393 188.405 26.4383C189.032 24.851 189.346 21.918 189.346 17.6393ZM15.8215 0.413949H10.805V32.38H24.0214V28.7362H15.8215V0.413949ZM5.01641 0.416139H0V32.3822H5.01641V0.416139ZM27.204 0.413949H32.2204V28.7362H40.4203V32.38H27.204V0.413949ZM48.9098 0.413949H43.9899V23.0014C43.9899 26.4934 44.4642 28.8535 45.4128 30.0819C46.7794 31.8762 49.1349 32.7734 52.4791 32.7734C55.5179 32.7734 57.7769 32.0764 59.2561 30.6824C60.4941 29.4539 61.1132 27.1007 61.1132 23.6225V0.413949H56.1932V23.6225C56.1932 25.6928 55.952 27.0662 55.4697 27.7425C55.0034 28.405 54.0387 28.7362 52.5756 28.7362C51.1125 28.7362 50.1317 28.3567 49.6333 27.5975C49.151 26.8384 48.9098 25.3064 48.9098 23.0014V0.413949ZM68.6133 0.413949H72.9062L76.1861 13.4571C76.5881 15.0858 76.9498 16.7213 77.2714 18.3638C77.609 19.9925 77.9145 21.704 78.1879 23.4983C78.22 23.2636 78.2441 23.0842 78.2602 22.96C78.2763 22.822 78.2924 22.7253 78.3085 22.6701L79.0079 19.0056L79.6349 15.5274L80.1896 13.2294L83.1078 0.413949H87.4489L90.8736 32.38H86.0742L85.2301 21.5314C85.198 20.9793 85.1658 20.5032 85.1337 20.1029C85.1176 19.7026 85.1095 19.3714 85.1095 19.1091L84.8925 14.8235L84.7719 10.8899C84.7719 10.8623 84.7639 10.8071 84.7478 10.7243C84.7478 10.6276 84.7397 10.5034 84.7237 10.3516L84.6031 10.9934C84.4745 11.7525 84.3539 12.415 84.2413 12.9809C84.1449 13.5468 84.0564 14.023 83.976 14.4095L83.349 17.3286L83.1078 18.4259L79.9725 32.38H76.5961L73.6538 20.3306C73.2519 18.7434 72.8901 17.1354 72.5685 15.5067C72.263 13.8643 71.9817 12.1459 71.7244 10.3516L70.2774 32.38H65.5504L68.6133 0.413949ZM100.038 0.413949H95.022V32.38H100.038V0.413949ZM105.827 0.413949H110.506L115.498 13.1673C116.945 16.7697 118.223 20.6136 119.333 24.6991C118.931 22.2284 118.633 19.9925 118.44 17.9912C118.248 15.9898 118.151 14.1058 118.151 12.3391V0.413949H123.192V32.38H118.489L112.869 17.9912C112.355 16.6523 111.865 15.279 111.398 13.8712C110.948 12.4633 110.53 10.9865 110.144 9.44064C110.112 9.24741 110.056 9.01277 109.975 8.73672C109.911 8.46068 109.831 8.14322 109.734 7.78437C109.782 8.14322 109.823 8.45378 109.855 8.71602C109.887 8.96446 109.911 9.1784 109.927 9.35783L110.192 12.6083L110.458 16.5626C110.474 16.7835 110.482 17.0526 110.482 17.3701C110.498 17.6875 110.506 18.0464 110.506 18.4466L110.771 32.38H105.827L105.827 0.413949ZM138.868 0.413949H134.961L126.858 32.38H131.681L133.104 26.1483H140.484L141.883 32.38H146.851L138.868 0.413949ZM138.651 17.722L139.76 22.8151H133.803L134.72 18.7158C135.202 16.5074 135.62 14.4233 135.974 12.4633C136.328 10.4896 136.617 8.54349 136.842 6.62498C137.308 10.5586 137.911 14.2576 138.651 17.722ZM146.079 0.413949H162.406V4.18197H156.787V32.38H151.867V4.18197H146.079V0.413949ZM170.172 0.413949H165.156V32.38H170.172V0.413949ZM204.274 0.413949H199.595L199.595 32.38H204.539L204.274 18.4466C204.274 18.0464 204.266 17.6875 204.249 17.3701C204.249 17.0526 204.241 16.7835 204.225 16.5626L203.96 12.6083L203.695 9.35783C203.679 9.1784 203.655 8.96446 203.622 8.71602C203.59 8.45378 203.55 8.14322 203.502 7.78437C203.598 8.14322 203.679 8.46068 203.743 8.73672C203.823 9.01277 203.88 9.24741 203.912 9.44064C204.298 10.9865 204.716 12.4633 205.166 13.8712C205.632 15.279 206.123 16.6523 206.637 17.9912L212.256 32.38H216.959V0.413949H211.919V12.3391C211.919 14.1058 212.015 15.9898 212.208 17.9912C212.401 19.9925 212.699 22.2284 213.101 24.6991C211.991 20.6136 210.713 16.7697 209.266 13.1673L204.274 0.413949Z"></path> </g></svg></svg>