<svg xmlns="http://www.w3.org/2000/svg" viewBox="0 0 300 450" width="300" height="450" font-family="Arial, Helvetica, sans-serif"><rect width="300" height="450" fill="#FFFFFF"/><text x="150.0" y="107.7" text-anchor="middle" dominant-baseline="middle" font-weight="bold" font-size="26.0" fill="#000000">UNTITLED</text><text x="150.0" y="135.0" text-anchor="middle" dominant-baseline="middle" font-weight="bold" font-size="26.0" fill="#000000">BLUMHOUSE</text><text x="150.0" y="162.3" text-anchor="middle" dominant-baseline="middle" font-weight="bold" font-size="26.0" fill="#000000">EVENT FILM</text><svg x="67.4" y="397.4" width="165.3" height="30.1" xmlns:xlink="http://www.w3.org/1999/xlink" viewBox="0.0 0.0 1000.0 182.13147" preserveAspectRatio="xMidYMid meet"><g fill="#000000"><g fill="#000000">
  <defs id="defs6">
    <clipPath clipPathUnits="userSpaceOnUse" id="clipPath16">
      <path d="M 30,30 H 768 V 966 H 30 Z" id="path14"/>
    </clipPath>
    <clipPath clipPathUnits="userSpaceOnUse" id="clipPath24">
      <path d="M 21.18,21 H 777 V 974.46 H 21.18 Z" id="path22"/>
    </clipPath>
    <clipPath clipPathUnits="userSpaceOnUse" id="clipPath134">
      <path d="m 87.266,64.96 h 623.47 V 205.39 H 87.266 Z" id="path132"/>
    </clipPath>
    <clipPath clipPathUnits="userSpaceOnUse" id="clipPath150">
      <path d="m 87.266,64.96 h 623.47 V 205.39 H 87.266 Z" id="path148"/>
    </clipPath>
    <clipPath clipPathUnits="userSpaceOnUse" id="clipPath210">
      <path d="M 21.18,21 H 777 V 974.46 H 21.18 Z" id="path208"/>
    </clipPath>
    <clipPath clipPathUnits="userSpaceOnUse" id="clipPath276">
      <path d="M 21.18,21 H 777 V 974.46 H 21.18 Z" id="path274"/>
    </clipPath>
    <clipPath clipPathUnits="userSpaceOnUse" id="clipPath304">
      <path d="M 21.18,21 H 777 V 974.46 H 21.18 Z" id="path302"/>
    </clipPath>
    <clipPath clipPathUnits="userSpaceOnUse" id="clipPath324">
      <path d="M 21.18,21 H 777 V 974.46 H 21.18 Z" id="path322"/>
    </clipPath>
    <clipPath clipPathUnits="userSpaceOnUse" id="clipPath338">
      <path d="M 21.18,21 H 777 V 974.46 H 21.18 Z" id="path336"/>
    </clipPath>
    <clipPath clipPathUnits="userSpaceOnUse" id="clipPath420">
      <path d="M 21.18,21 H 777 V 974.46 H 21.18 Z" id="path418"/>
    </clipPath>
    <clipPath clipPathUnits="userSpaceOnUse" id="clipPath448">
      <path d="M 21.18,21 H 777 V 974.46 H 21.18 Z" id="path446"/>
    </clipPath>
    <clipPath clipPathUnits="userSpaceOnUse" id="clipPath488">
      <path d="M 21.18,21 H 777 V 974.46 H 21.18 Z" id="path486"/>
    </clipPath>
    <clipPath clipPathUnits="userSpaceOnUse" id="clipPath546">
      <path d="M 21.18,21 H 777 V 974.46 H 21.18 Z" id="path544"/>
    </clipPath>
    <clipPath clipPathUnits="userSpaceOnUse" id="clipPath562">
      <path d="M 21.18,21 H 777 V 974.46 H 21.18 Z" id="path560"/>
    </clipPath>
    <clipPath clipPathUnits="userSpaceOnUse" id="clipPath576">
      <path d="M 21.18,21 H 777 V 974.46 H 21.18 Z" id="path574"/>
    </clipPath>
    <clipPath clipPathUnits="userSpaceOnUse" id="clipPath614">
      <path d="M 21.18,21 H 777 V 974.46 H 21.18 Z" id="path612"/>
    </clipPath>
    <clipPath clipPathUnits="userSpaceOnUse" id="clipPath634">
      <path d="M 21,21 H 777 V 975 H 21 Z" id="path632"/>
    </clipPath>
    <clipPath clipPathUnits="userSpaceOnUse" id="clipPath654">
      <path d="M 0,0 H 798 V 996 H 0 Z" id="path652"/>
    </clipPath>
  </defs>
  <g id="g8" transform="matrix(1.3333333,0,0,-1.3333333,-76.355473,71.516933)">
    <g id="g3067">
      <path d="m 86.519884,-37.258574 -0.993478,0.783917 0.923624,0.869293 c 5.145907,4.882014 5.130384,7.381233 5.099338,13.411957 l -0.0078,12.9152169 c 0,9.5234205 -3.36075,12.146824 -15.655044,12.146824 H 57.266606 c 1.443648,-3.57031247 1.65321,-5.3787534 1.65321,-9.2517663 V -72.41839 c 0,-3.880775 -0.209562,-5.681454 -1.65321,-9.236244 h 18.619956 c 12.434001,0 15.655044,2.491458 15.655044,12.131301 v 20.102412 c 0.0078,5.6116 0.01552,8.180673 -5.021722,12.162347 M 80.53573,-67.194868 c 0,-3.027004 -0.403601,-5.991916 -5.083815,-5.991916 h -5.526223 v 31.876682 h 5.526223 c 4.680214,0 5.083815,-2.949389 5.083815,-5.984155 z m 0,40.468716 c 0,-3.034766 -0.403601,-5.991916 -5.083815,-5.991916 h -5.526223 v 26.7618208 h 5.526223 c 4.680214,0 5.083815,-2.9571501 5.083815,-5.9841538 z" style="fill:#000000;fill-opacity:1;fill-rule:nonzero;stroke:none;stroke-width:7.76155" id="path214"/>
      <path d="m 149.91233,-73.285355 c 7.12511,0 10.02016,0.155231 13.2024,1.20304 v -9.56999 h -26.96362 c 1.44365,3.554789 1.66097,5.355469 1.66097,9.236243 v 66.0274966 c 0,3.8807744 -0.21732,5.68145375 -1.66097,9.2517662 h 14.39767 c -1.5135,-3.54702781 -1.73082,-5.3554687 -1.73082,-9.2517662 V -73.285355 Z" style="fill:#000000;fill-opacity:1;fill-rule:nonzero;stroke:none;stroke-width:7.76155" id="path218"/>
      <path d="m 224.68399,2.8585439 h 14.32006 c -1.44365,-3.56255093 -1.65321,-5.3632303 -1.65321,-9.2440047 V -68.749506 c 0,-5.316661 -1.12542,-8.002157 -4.58708,-11.044684 -2.41384,-1.986957 -6.76807,-3.166712 -11.65008,-3.166712 -4.87425,0 -9.29834,1.187517 -11.75099,3.135665 -3.07357,2.770873 -4.63364,5.246808 -4.63364,11.075731 v 62.3640452 c 0,3.8807744 -0.20956,5.68145377 -1.65321,9.2440047 h 14.38991 c -1.50574,-3.53150474 -1.73082,-5.3477072 -1.73082,-9.2440047 V -67.523182 c 0,-4.043766 2.08785,-6.651647 5.3089,-6.651647 2.41384,0 5.30113,1.156471 5.30113,6.651647 v 61.1377212 c 0,3.8807744 -0.20956,5.68145377 -1.66097,9.2440047" style="fill:#000000;fill-opacity:1;fill-rule:nonzero;stroke:none;stroke-width:7.76155" id="path222"/>
      <path d="M 337.81633,-7.0940902 V -72.392001 c 0,-3.865251 0.2018,-5.634885 1.5135,-8.941304 H 327.1442 c 1.30394,3.236565 1.6144,5.122622 1.6144,8.941304 v 64.863264 l -14.05616,-73.804568 h -7.77708 l -13.9475,72.9663207 V -72.392001 c 0,-3.826444 0.31046,-5.704739 1.60664,-8.941304 h -12.17787 c 1.30394,3.306419 1.50574,5.076053 1.50574,8.941304 v 66.2991506 c 0,3.8730129 -0.2018,5.64264601 -1.50574,8.9568274 h 17.27721 l 11.08349,-56.604976 10.73422,55.9374828 h 18.06889 c -1.33499,-3.2598505 -1.75411,-4.5793139 -1.75411,-9.290574" style="fill:#000000;fill-opacity:1;fill-rule:nonzero;stroke:none;stroke-width:7.76155" id="path226"/>
      <path d="m 578.29628,1.0019814 c -2.40608,1.9869565 -6.7215,3.1822351 -11.54919,3.1822351 -4.81216,0 -9.1431,-1.1952786 -11.55694,-3.19775818 -3.31418,-2.87953462 -4.49394,-5.69697692 -4.49394,-10.71093752 V -68.774343 c 0,-5.728023 1.53679,-8.157388 4.54827,-10.87393 2.36727,-1.917103 6.68269,-3.073574 11.50261,-3.073574 4.82769,0 9.15087,1.164233 11.57247,3.120143 3.33747,2.933866 4.36199,5.464131 4.36199,10.827361 v 59.0498638 c 0,5.3088995 -1.07109,7.9167799 -4.38527,10.7264606 m -5.89102,-68.5422384 c 0,-6.333424 -4.04376,-7.01644 -5.77459,-7.01644 -3.40732,0 -5.53398,2.685496 -5.53398,7.01644 v 56.465268 c 0,3.2288047 1.45141,7.0009174 5.53398,7.0009174 3.67121,0 5.77459,-2.5535496 5.77459,-7.0009174 z" style="fill:#000000;fill-opacity:1;fill-rule:nonzero;stroke:none;stroke-width:7.76155" id="path230"/>
      <path d="m 648.87049,2.8585439 h 13.41196 c -1.3117,-3.31418137 -1.50574,-5.076053 -1.50574,-8.9490659 v -62.612415 c 0,-5.293376 -1.04781,-7.823641 -4.48618,-10.835122 -2.36727,-1.948149 -6.65941,-3.112381 -11.47933,-3.112381 -4.82768,0 -9.17415,1.15647 -11.59575,3.065811 -3.00372,2.724304 -4.53275,5.153669 -4.53275,10.881692 v 62.612415 c 0,3.8730129 -0.19404,5.63488453 -1.50574,8.9490659 h 13.47405 c -1.36603,-3.28313517 -1.57559,-5.0527683 -1.57559,-8.9490659 v -61.378329 c 0,-3.244327 1.48245,-7.008678 5.6504,-7.008678 2.57684,0 5.65817,1.210801 5.65817,7.008678 v 61.378329 c 0,3.8730129 -0.20956,5.63488453 -1.5135,8.9490659" style="fill:#000000;fill-opacity:1;fill-rule:nonzero;stroke:none;stroke-width:7.76155" id="path234"/>
      <path d="m 722.52138,-30.038005 c 0.55107,-0.675255 1.16423,-1.435886 1.83949,-2.289657 l 4.12914,-5.138145 c 0.98572,-1.226325 1.87054,-2.281896 2.81744,-3.415082 4.8044,-5.751307 5.53399,-6.628363 5.53399,-14.219157 v -16.625238 c 0,-6.26357 -6.26357,-9.181912 -8.95683,-10.152106 -1.47469,-0.535547 -3.50822,-0.838247 -5.58831,-0.838247 -3.6945,0 -7.00868,0.931386 -9.14311,2.569072 -4.67245,3.267612 -4.59484,7.156148 -4.52498,11.269769 l 0.031,2.809681 c 0.0155,2.817442 0.0388,5.735785 -0.69853,8.987874 h 10.70317 c -0.66749,-3.166712 -0.65197,-5.471892 -0.62868,-9.71746 v -2.80968 c 0,-2.895058 1.82396,-4.998438 4.32318,-4.998438 2.55355,0 4.199,1.963672 4.199,4.998438 v 12.620278 c 0,5.285615 -1.05557,6.542986 -5.4719,11.820839 l -4.09033,5.153669 c -0.73735,0.892578 -1.42037,1.70754 -2.05681,2.483695 l -0.20956,0.240608 c -5.21577,6.217001 -6.97764,8.304858 -6.97764,15.561906 v 13.0626867 c 0,9.17415082 8.06425,12.3331012 12.82208,12.7522249 0.83049,0.062092 1.7774,0.1164232 2.77864,0.1164232 5.3477,0 8.95682,-1.7075408 11.0214,-5.2235224 1.59111,-2.7320652 1.59111,-5.8987772 1.58335,-9.5622284 l -0.008,-2.134426 c -0.0233,-2.60788 -0.0388,-4.71126 0.65973,-7.583033 h -10.71094 c 0.69854,2.848488 0.69854,4.470652 0.6675,8.560988 l -0.008,2.6156423 c 0,2.8096807 -1.94039,5.0061991 -4.42409,5.0061991 -2.49145,0 -4.09809,-1.9559103 -4.09809,-5.0061991 V -20.3904 c 0,-4.144667 1.49797,-5.968631 4.48617,-9.647605" style="fill:#000000;fill-opacity:1;fill-rule:nonzero;stroke:none;stroke-width:7.76155" id="path238"/>
      <path d="m 796.83511,-73.570204 c 5.86773,0.07762 7.19495,0.1009 10.43152,1.249609 v -9.011158 h -25.14742 c 1.3117,3.314181 1.5135,5.076053 1.5135,8.941304 v 66.3069124 c 0,3.8652514 -0.2018,5.63488452 -1.5135,8.9490659 h 25.14742 v -9.1275815 c -3.00372,1.0633322 -4.43185,1.1564708 -9.50014,1.1564708 h -3.7333 V -73.60125 Z" style="fill:#000000;fill-opacity:1;fill-rule:nonzero;stroke:none;stroke-width:7.76155" id="path242"/>
      <path d="m 803.15456,-39.042954 c -0.78392,-0.504501 -4.36975,-2.460411 -5.16919,-2.631165 v 8.025442 c 1.49798,0.318223 5.60384,2.988196 6.83016,4.144667 0.65973,0.628685 1.33499,1.265132 2.00248,1.715302 v -9.880452 c -1.39708,0.09314 -2.55355,-0.65197 -3.66345,-1.373794" style="fill:#000000;fill-opacity:1;fill-rule:nonzero;stroke:none;stroke-width:7.76155" id="path246"/>
      <path id="path254" style="fill:#000000;fill-opacity:1;fill-rule:nonzero;stroke:none;stroke-width:7.76155" d="m 445.7492,-81.640663 h -8.25828 v 39.413146 h 16.18283 v -39.413146 z m 59.33394,83.4777871 c -1.29618,-3.4849355 -1.52902,-5.0993377 -1.52902,-8.9490659 V -73.263623 c 0,-3.624643 0.19403,-4.905299 1.29617,-8.382473 h -37.1002 c -1.10214,3.477174 -1.19528,4.625883 -1.19528,8.26605 v 66.2913888 c 0,3.7798744 0.0931,5.6193614 1.31947,8.7317426 l 0.35703,1.3505095 h -15.90342 l 0.27942,-1.3505095 c 1.23408,-3.1201427 1.23408,-4.9596298 1.23408,-8.7317426 V -32.950138 h -16.18282 v 25.8614808 c 0,3.7953975 0.23284,5.627123 1.5135,8.723981 l 0.52002,1.3582711 h -17.16078 l 0.72958,-1.3505095 c 1.22633,-3.1201427 1.68426,-4.9596298 1.68426,-8.7317426 V -73.380046 c 0,-3.640167 -0.42689,-4.788876 -1.55231,-8.26605 H 387.0067 c 1.11766,2.320703 0.94691,4.687976 0.94691,8.382473 v 66.1516812 c 0,3.8497282 0.2018,5.4641304 -1.09438,8.9490659 h -5.28562 l -0.51226,-0.085377 v 1.5367867 l 14.73918,33.3280912 h 30.24676 l 19.90837,17.021076 19.90837,-16.726137 h 30.77455 l 14.24244,-33.4600377 0.008,-1.6144021 z"/>
    </g>
  </g>
</g></g></svg></svg>