<svg xmlns="http://www.w3.org/2000/svg" viewBox="0 0 300 450" width="300" height="450" font-family="Arial, Helvetica, sans-serif"><rect width="300" height="450" fill="#0C0C0C"/><text x="150.0" y="121.3" text-anchor="middle" dominant-baseline="middle" font-weight="bold" font-size="26.0" fill="#FFFFFF">UNTITLED</text><text x="150.0" y="148.7" text-anchor="middle" dominant-baseline="middle" font-weight="bold" font-size="26.0" fill="#FFFFFF">A24</text><svg x="84.2" y="373.5" width="131.5" height="54.0" xmlns:xlink="http://www.w3.org/1999/xlink" viewBox="0.0 0.0 380.0 156.0" preserveAspectRatio="xMidYMid meet"><g fill="#FFFFFF"> <path fill="#FFFFFF" d="M379.85,111.86h-.1v-.04h-10.9V.2l-105.9,117.6h-81.3c-3.5,0-6.3-1.28-6.3-4.78,0-2.4,1.3-4.4,3.2-5.5.1-.05.1-.07.2-.1,8.2-4.2,16.1-6.4,20.6-7.7l1.4-.4c2.7-.8,6.1-1.5,9.6-2.3,1.2-.3,2.5-.6,3.8-.8,21.5-4.9,50.6-14.82,50.6-49.12,0-7.6-1.9-15.3-6.3-22.2-7-11-20.2-19.9-41.8-22.5-4.2-.5-8.8-.8-13.7-.8-33.5,0-56.1,17.6-56.9,44v1.4c0,14.6,11.8,26.4,26.4,26.4s26.4-11.9,26.4-26.4-11.8-26.4-26.4-26.4c-.8,0-1.6,0-2.4.1h-.1c-5.4.5-6.16.81-10.12,2.36,2.79-3.66,3.49-4.13,8.22-7.57.1,0,.1-.1.2-.1,9-5.8,21-9,35.1-9,1.5,0,3,0,4.4.1h.9c3.1.4,5.2,2.35,5.2,5.55v72.95c0,3.4-2.4,6.3-5.5,7.1-.2,0-.3.1-.5.1-3,.6-5.7,1.3-8.1,2l-1.3.4c-6.5,1.8-20,5.6-31.9,14.7-4.2,3.2-7.8,6.7-10.9,10.6-7.8,9.9-11.7,22-11.7,36.1h84.9l34.3-38.1h62.3v38.1h43.5v-38.07h10.8v-.03h.1v-6.04.01h0ZM325.35,111.8l-48.19-.06,48.19-54.62v54.68ZM57.85,32.4c-5.4,11.3-16.6,12.5-16.6,12.5l5.4,11.5v.1L.15,155.9h6.58l15.62-33.3h55.23l15.5,33.3h47.96L70.75,4.9l-12.9,27.5ZM25.27,116.5l24.75-52.86,24.69,52.86H25.27Z"></path> </g></svg></svg>