<svg xmlns="http://www.w3.org/2000/svg" viewBox="0 0 300 450" width="300" height="450" font-family="Arial, Helvetica, sans-serif"><rect width="300" height="450" fill="#2C3137"/><text x="150.0" y="107.7" text-anchor="middle" dominant-baseline="middle" font-weight="bold" font-size="26.0" fill="#FFFFFF">UNTITLED</text><text x="150.0" y="135.0" text-anchor="middle" dominant-baseline="middle" font-weight="bold" font-size="26.0" fill="#FFFFFF">LIONSGATE</text><text x="150.0" y="162.3" text-anchor="middle" dominant-baseline="middle" font-weight="bold" font-size="26.0" fill="#FFFFFF">EVENT FILM</text><svg x="63.2" y="405.5" width="173.6" height="22.0" xmlns:xlink="http://www.w3.org/1999/xlink" viewBox="0.0 0.0 980.148 124.247" preserveAspectRatio="xMidYMid meet"><g fill="#FFFFFF"><g fill="#FFFFFF">
  <defs>
    <clipPath id="_clipPath_WViJ0qlYHjgikZLXHtJcBmPqsYMEPk5X">
      <rect width="980.148" height="124.247"/>
    </clipPath>
  </defs>
  <g clip-path="url(#_clipPath_WViJ0qlYHjgikZLXHtJcBmPqsYMEPk5X)">
    <g id="Group">
      <path d=" M 775.563 3.799 L 775.563 27.483 L 811.044 27.483 L 811.044 120.477 L 836.721 120.477 L 836.721 27.483 L 872.195 27.483 L 872.195 3.799 L 775.563 3.799 Z " fill="#FFFFFF"/>
      <path d=" M 379.348 3.799 L 379.348 75.647 L 324.693 3.799 L 301.039 3.799 L 301.039 120.477 L 326.361 120.477 L 326.361 46.309 L 382.85 120.477 L 404.684 120.477 L 404.684 3.799 L 379.348 3.799 Z " fill="#FFFFFF"/>
      <g id="Group">
        <path d=" M 599.083 78.955 L 632.867 78.955 C 631.294 87.815 622.592 100.868 600.845 100.868 C 579.526 100.868 562.368 83.914 562.368 62.262 C 562.368 40.188 579.061 23.524 601.251 23.524 C 623.6 23.524 633.933 41.189 634.368 41.943 L 654.266 29.615 C 642.591 10.819 623.273 0.014 601.25 0.014 C 566.392 0.014 538.024 27.816 538.024 62 C 538.024 96.894 565.427 124.247 600.416 124.247 C 632.866 124.247 658.275 100.941 658.275 69.426 L 658.275 55.866 L 599.082 55.866 L 599.082 78.955 L 599.083 78.955 Z " fill="#FFFFFF"/>
        <path d=" M 490.1 53.531 C 473.276 47.222 456.67 45.061 456.67 33.821 C 456.67 27.295 463.457 22.407 477.816 22.407 C 491.63 22.407 507.272 28.701 517.735 34.227 L 517.735 9.354 C 503.616 3.48 490.114 0 476.169 0 C 447.983 0 428.911 14.271 428.911 34.981 C 428.911 57.591 448.193 65.583 461.615 70.615 C 478.424 76.894 494.552 79.201 494.552 90.44 C 494.552 96.952 486.8 101.839 472.457 101.854 C 459.049 101.854 442.769 95.531 432.312 90.02 L 432.312 114.994 C 446.931 121.245 460.281 124.247 474.073 124.247 C 502.557 124.263 522.281 109.976 522.281 89.267 C 522.282 66.655 503.529 58.578 490.1 53.531 Z " fill="#FFFFFF"/>
        <path d=" M 216.008 0 C 182.078 0 154.486 27.584 154.486 61.522 C 154.486 96.054 181.766 124.117 215.297 124.117 C 250.329 124.117 277.776 96.691 277.776 61.652 C 277.776 27.671 250.061 0 216.008 0 Z  M 215.717 99.824 C 195.174 99.824 179.061 83.232 179.061 62.058 C 179.061 40.971 195.398 24.452 216.261 24.452 C 236.906 24.452 253.048 40.869 253.048 61.783 C 253.048 83.465 237.022 99.824 215.717 99.824 Z " fill="#FFFFFF"/>
        <path d=" M 25.663 3.814 L 0 3.814 L 0 120.462 L 83.631 120.462 L 83.631 97.142 L 25.663 97.142 L 25.663 3.814 Z " fill="#FFFFFF"/>
        <path d=" M 971.374 97.634 L 916.865 97.634 L 916.865 73.139 L 966.813 73.139 C 966.472 69.049 966.248 64.902 966.248 60.71 C 966.248 57.186 966.407 53.734 966.697 50.311 L 916.865 50.311 L 916.865 26.643 L 970.779 26.643 C 972.933 18.724 975.827 11.066 979.343 3.815 L 979.343 3.799 L 891.383 3.799 L 891.383 120.476 L 980.148 120.476 C 976.566 113.226 973.615 105.582 971.374 97.634 Z " fill="#FFFFFF"/>
        <rect x="104.646" y="3.814" width="25.663" height="116.662" transform="matrix(1,0,0,1,0,0)" fill="#FFFFFF"/>
        <path d=" M 713.091 3.799 L 663.454 120.462 L 689.625 120.462 L 698.906 97.504 L 750.972 97.504 L 760.254 120.462 L 787.106 120.462 L 737.448 3.829 L 713.091 3.799 L 713.091 3.799 Z  M 707.608 75.967 L 724.925 33.807 L 742.364 75.967 L 707.608 75.967 L 707.608 75.967 Z " fill="#FFFFFF"/>
      </g>
    </g>
  </g>
</g></g></svg></svg>